<svg width="60" height="60" viewBox="0 0 60 60" fill="none" xmlns="http://www.w3.org/2000/svg">
<path d="M20.7486 51.775L1.97489 33.0012C1.00739 32.0337 1.00739 30.4663 1.97489 29.4988L6.99864 24.475C7.96614 23.5075 9.53364 23.5075 10.5011 24.475L29.2749 43.2487C30.2424 44.2162 30.2424 45.7838 29.2749 46.7513L24.2511 51.775C23.2836 52.7412 21.7161 52.7412 20.7486 51.775Z" fill="url(#paint0_linear_5_268)"/>
<path d="M15.7249 43.2487L49.4987 9.475C50.4662 8.5075 52.0337 8.5075 53.0012 9.475L58.0249 14.4987C58.9924 15.4662 58.9924 17.0337 58.0249 18.0012L24.2512 51.775C23.2837 52.7425 21.7162 52.7425 20.7487 51.775L15.7249 46.7513C14.7587 45.7837 14.7587 44.2162 15.7249 43.2487Z" fill="url(#paint1_linear_5_268)"/>
<defs>
<linearGradient id="paint0_linear_5_268" x1="26.5511" y1="49.0512" x2="4.42615" y2="26.9262" gradientUnits="userSpaceOnUse">
<stop offset="0.108" stop-color="#5AC5D2"/>
<stop offset="0.433" stop-color="#61C9D6"/>
</linearGradient>
<linearGradient id="paint1_linear_5_268" x1="55.5128" y1="11.9874" x2="18.2374" y2="49.264" gradientUnits="userSpaceOnUse">
<stop stop-color="#B1E9F0"/>
<stop offset="1" stop-color="#6BDBE9"/>
</linearGradient>
</defs>
</svg>
