<svg width="50" height="50" viewBox="0 0 50 50" fill="none" xmlns="http://www.w3.org/2000/svg">
<path d="M21.6797 32.0117C21.4952 32.2232 21.3979 32.4969 21.4075 32.7774C21.417 33.0579 21.5327 33.3243 21.7312 33.5227C21.9296 33.7212 22.196 33.8369 22.4765 33.8464C22.757 33.856 23.0307 33.7587 23.2422 33.5742L31.1387 25.6836C31.345 25.4759 31.4608 25.1951 31.4608 24.9023C31.4608 24.6096 31.345 24.3287 31.1387 24.1211L23.2471 16.2285C23.0356 16.044 22.7619 15.9467 22.4814 15.9563C22.2009 15.9658 21.9345 16.0815 21.736 16.28C21.5376 16.4784 21.4219 16.7448 21.4123 17.0253C21.4028 17.3058 21.5001 17.5795 21.6846 17.791L27.6875 23.793H6.24023C5.94653 23.793 5.66485 23.9096 5.45717 24.1173C5.24949 24.325 5.13281 24.6067 5.13281 24.9004C5.13281 25.1941 5.24949 25.4758 5.45717 25.6834C5.66485 25.8911 5.94653 26.0078 6.24023 26.0078H27.6826L21.6797 32.0117Z" fill="#FCFCFC"/>
<path d="M36.4102 5.81348H17.9941C16.8124 5.81503 15.6795 6.28524 14.8439 7.12097C14.0084 7.9567 13.5384 9.08971 13.5371 10.2715V14.7754C13.5457 15.0633 13.666 15.3365 13.8727 15.5371C14.0793 15.7377 14.356 15.8499 14.644 15.8499C14.9321 15.8499 15.2087 15.7377 15.4154 15.5371C15.6221 15.3365 15.7424 15.0633 15.751 14.7754V10.2715C15.751 9.67578 15.9876 9.10448 16.4088 8.68326C16.8301 8.26203 17.4014 8.02539 17.9971 8.02539H36.4102C37.0059 8.02539 37.5772 8.26203 37.9984 8.68326C38.4196 9.10448 38.6563 9.67578 38.6563 10.2715V39.7461C38.6563 40.3418 38.4196 40.9131 37.9984 41.3343C37.5772 41.7555 37.0059 41.9922 36.4102 41.9922H17.9941C17.3984 41.9922 16.8271 41.7555 16.4059 41.3343C15.9847 40.9131 15.748 40.3418 15.748 39.7461V35.3516C15.7524 35.2034 15.7271 35.0559 15.6734 34.9178C15.6198 34.7796 15.5389 34.6537 15.4357 34.5473C15.3325 34.441 15.209 34.3565 15.0725 34.2987C14.936 34.241 14.7893 34.2113 14.6411 34.2113C14.4929 34.2113 14.3462 34.241 14.2097 34.2987C14.0732 34.3565 13.9497 34.441 13.8465 34.5473C13.7433 34.6537 13.6625 34.7796 13.6088 34.9178C13.5552 35.0559 13.5298 35.2034 13.5342 35.3516V39.7461C13.5355 40.9279 14.0054 42.0609 14.841 42.8966C15.6765 43.7323 16.8094 44.2026 17.9912 44.2041H36.4102C37.5921 44.2028 38.7253 43.7327 39.561 42.897C40.3968 42.0612 40.8669 40.928 40.8682 39.7461V10.2715C40.8669 9.08954 40.3968 7.95638 39.561 7.12062C38.7253 6.28487 37.5921 5.81477 36.4102 5.81348Z" fill="#FCFCFC"/>
</svg>
