<svg width="34" height="36" viewBox="0 0 34 36" fill="none" xmlns="http://www.w3.org/2000/svg">
<path d="M16.9998 16.9583C21.6022 16.9583 25.3332 13.2274 25.3332 8.62499C25.3332 4.02262 21.6022 0.291656 16.9998 0.291656C12.3975 0.291656 8.6665 4.02262 8.6665 8.62499C8.6665 13.2274 12.3975 16.9583 16.9998 16.9583Z" fill="#FCFCFC"/>
<path d="M33.6666 35.7083V27.375C33.6666 26.125 33.0416 24.875 31.9999 24.0417C29.7083 22.1667 26.7916 20.9167 23.8749 20.0833C21.7916 19.4583 19.4999 19.0417 16.9999 19.0417C14.7083 19.0417 12.4166 19.4583 10.1249 20.0833C7.20825 20.9167 4.29159 22.375 1.99992 24.0417C0.958252 24.875 0.333252 26.125 0.333252 27.375V35.7083H33.6666Z" fill="#FCFCFC"/>
</svg>
