<svg width="41" height="42" viewBox="0 0 41 42" fill="none" xmlns="http://www.w3.org/2000/svg">
<path d="M20.5 41.3125C16.5629 41.3125 12.7143 40.1212 9.44069 37.8892C6.16712 35.6573 3.61569 32.4849 2.10903 28.7733C0.602375 25.0616 0.208165 20.9775 0.976252 17.0372C1.74434 13.097 3.64023 9.47766 6.42416 6.6369C9.2081 3.79615 12.7551 1.86157 16.6165 1.07781C20.4779 0.294046 24.4804 0.696301 28.1178 2.23371C31.7552 3.77111 34.8641 6.37462 37.0514 9.71499C39.2388 13.0554 40.4063 16.9826 40.4063 21C40.4063 26.3872 38.309 31.5538 34.5759 35.3631C30.8427 39.1724 25.7795 41.3125 20.5 41.3125ZM20.5 3.81251C17.1686 3.81251 13.9121 4.82054 11.1421 6.70912C8.37218 8.59771 6.21328 11.282 4.93841 14.4226C3.66355 17.5632 3.32999 21.0191 3.97991 24.3531C4.62983 27.6872 6.23404 30.7497 8.58968 33.1534C10.9453 35.5571 13.9466 37.1941 17.214 37.8573C20.4813 38.5204 23.868 38.1801 26.9458 36.8792C30.0236 35.5783 32.6543 33.3753 34.5051 30.5489C36.3559 27.7224 37.3438 24.3994 37.3438 21C37.3438 16.4416 35.5692 12.0699 32.4103 8.84661C29.2515 5.62333 24.9672 3.81251 20.5 3.81251Z" fill="#FCFCFC"/>
<path d="M20.5 31.9375C20.0939 31.9375 19.7044 31.7729 19.4172 31.4799C19.1301 31.1868 18.9688 30.7894 18.9688 30.375V11.625C18.9688 11.2106 19.1301 10.8132 19.4172 10.5201C19.7044 10.2271 20.0939 10.0625 20.5 10.0625C20.9061 10.0625 21.2956 10.2271 21.5828 10.5201C21.8699 10.8132 22.0312 11.2106 22.0312 11.625V30.375C22.0312 30.7894 21.8699 31.1868 21.5828 31.4799C21.2956 31.7729 20.9061 31.9375 20.5 31.9375Z" fill="#FCFCFC"/>
<path d="M29.6875 22.5625H11.3125C10.9064 22.5625 10.5169 22.3979 10.2297 22.1049C9.94258 21.8118 9.78125 21.4144 9.78125 21C9.78125 20.5856 9.94258 20.1882 10.2297 19.8951C10.5169 19.6021 10.9064 19.4375 11.3125 19.4375H29.6875C30.0936 19.4375 30.4831 19.6021 30.7703 19.8951C31.0574 20.1882 31.2188 20.5856 31.2188 21C31.2188 21.4144 31.0574 21.8118 30.7703 22.1049C30.4831 22.3979 30.0936 22.5625 29.6875 22.5625Z" fill="#FCFCFC"/>
</svg>
