<svg width="45" height="45" viewBox="0 0 45 45" fill="none" xmlns="http://www.w3.org/2000/svg">
<path d="M3.19977 27.227L5.29415 28.1869C6.1668 28.5942 6.57408 29.5831 6.25407 30.4849L5.43962 32.6374C4.82877 34.2955 5.03235 36.0699 6.05048 37.4953C7.03946 38.9497 8.66845 39.7932 10.4138 39.7932C11.0537 39.7932 11.6937 39.6769 12.3046 39.4442L14.4571 38.6297C14.6607 38.5424 14.8644 38.5134 15.0971 38.5134C15.7952 38.5134 16.4642 38.9207 16.7551 39.5896L17.715 41.684C18.5877 43.6039 20.4493 44.7965 22.5437 44.7965C24.6381 44.7965 26.4997 43.6039 27.3723 41.684L28.3323 39.5896C28.6231 38.9497 29.2631 38.5134 29.9903 38.5134C30.1939 38.5134 30.4266 38.5424 30.6302 38.6297L32.7828 39.4733C33.3937 39.7061 34.0336 39.8514 34.6736 39.8514C36.3899 39.8514 38.0188 38.9497 39.0369 37.5243C40.0259 36.0699 40.2586 34.2955 39.6477 32.6374L38.8333 30.4849C38.5133 29.5831 38.9206 28.5941 39.7932 28.1869L41.8876 27.227C43.8074 26.3543 45.0001 24.4927 45.0001 22.3983C45.0001 20.3039 43.8073 18.4422 41.8875 17.5695L39.7931 16.6096C38.9205 16.2023 38.5132 15.2134 38.8332 14.3117L39.6476 12.1591C40.2585 10.501 40.0549 8.72666 39.0368 7.30126C38.0478 5.8468 36.4188 5.0033 34.6735 5.0033C34.0336 5.0033 33.3936 5.11962 32.7827 5.35236L30.6301 6.1668C30.4265 6.25407 30.2229 6.28312 29.9902 6.28312C29.2921 6.28312 28.623 5.87585 28.3322 5.20688L27.3722 3.11251C26.4996 1.19266 24.638 0 22.5436 0C20.4492 0 18.5003 1.22172 17.6277 3.14156L16.6677 5.23594C16.3769 5.87585 15.7369 6.31218 15.0097 6.31218C14.8061 6.31218 14.5734 6.28312 14.3698 6.19586L12.2172 5.38141C11.6063 5.14867 10.9664 5.03235 10.3264 5.03235C8.61014 5.03235 6.98125 5.90501 5.96312 7.33031C4.97414 8.78477 4.7414 10.5591 5.35226 12.1881L6.1667 14.3407C6.48671 15.2424 6.07944 16.2315 5.20678 16.6387L3.11241 17.5986C1.19266 18.4713 0 20.333 0 22.4274C0 24.5217 1.27993 26.3543 3.19977 27.227ZM4.62508 20.7402L6.71945 19.7802C9.25015 18.6167 10.4719 15.6788 9.4829 13.0898L8.66845 10.9373C8.3776 10.1519 8.66845 9.57006 8.87204 9.27921C9.33742 8.58108 10.2101 8.29023 11.0246 8.61014L13.1772 9.42458C13.7881 9.65733 14.3989 9.77365 15.0388 9.77365C17.1042 9.77365 18.9948 8.55193 19.8675 6.66114L20.8274 4.56676C21.2638 3.57779 22.1946 3.49052 22.4855 3.49052C22.7763 3.49052 23.6781 3.57779 24.1435 4.56676L25.1034 6.66114C25.9761 8.55193 27.8669 9.77365 29.9321 9.77365C30.572 9.77365 31.1829 9.65733 31.7937 9.42458L33.9463 8.61014C34.7608 8.31929 35.6044 8.61014 36.0989 9.27921C36.3025 9.57006 36.5934 10.1519 36.3025 10.9373L35.488 13.0898C34.5281 15.6788 35.7208 18.6166 38.2515 19.7802L40.3459 20.7402C41.3348 21.1765 41.4221 22.1074 41.4221 22.3982C41.4221 22.6891 41.3348 23.5909 40.3459 24.0563L38.2515 25.0162C35.7208 26.1797 34.4991 29.1177 35.488 31.7066L36.3025 33.8592C36.5933 34.6446 36.3025 35.2264 36.0989 35.5172C35.6335 36.2153 34.7609 36.5062 33.9463 36.1863L31.7937 35.3718C31.1829 35.1391 30.572 35.0228 29.9321 35.0228C27.8668 35.0228 25.9761 36.2445 25.1034 38.1353L24.1435 40.2297C23.7072 41.2186 22.7763 41.3059 22.4855 41.3059C22.1946 41.3059 21.2928 41.2186 20.8274 40.2297L19.8675 38.1353C18.9948 36.2445 17.1041 35.0228 15.0388 35.0228C14.3989 35.0228 13.7881 35.1391 13.1772 35.3718L11.0246 36.1863C10.2102 36.4771 9.36658 36.1863 8.87204 35.5172C8.66845 35.2264 8.3775 34.6446 8.66845 33.8592L9.4829 31.7066C10.4428 29.1177 9.25015 26.1798 6.71945 25.0162L4.62508 24.0563C3.6361 23.6199 3.54884 22.6891 3.54884 22.3982C3.54884 22.1074 3.6361 21.2056 4.62508 20.7402Z" fill="#FCFCFC"/>
<path d="M22.4564 29.9613C26.6161 29.9613 30.0194 26.5579 30.0194 22.3982C30.0194 18.2385 26.6161 14.8351 22.4564 14.8351C18.2967 14.8351 14.8933 18.2385 14.8933 22.3982C14.8933 26.5579 18.2676 29.9613 22.4564 29.9613ZM22.4564 18.3259C24.6962 18.3259 26.5288 20.1584 26.5288 22.3983C26.5288 24.6382 24.6962 26.4707 22.4564 26.4707C20.2165 26.4707 18.3839 24.6382 18.3839 22.3983C18.3839 20.1584 20.2166 18.3259 22.4564 18.3259Z" fill="#FCFCFC"/>
</svg>
