<svg width="43" height="44" viewBox="0 0 43 44" fill="none" xmlns="http://www.w3.org/2000/svg">
<path d="M37.4151 28.7891H14.979C14.6067 28.7897 14.2453 28.6659 13.9541 28.4381C13.6629 28.2103 13.4593 27.892 13.3766 27.5355L9.59882 11.3706C9.54356 11.1345 9.54323 10.8892 9.59785 10.6529C9.65248 10.4166 9.76065 10.1955 9.91433 10.0059C10.068 9.8164 10.2632 9.66334 10.4854 9.55814C10.7077 9.45295 10.9512 9.39833 11.1979 9.39835H41.1962C41.4431 9.39785 41.687 9.45211 41.9097 9.55709C42.1323 9.66208 42.3279 9.81508 42.482 10.0047C42.636 10.1943 42.7445 10.4156 42.7993 10.6521C42.8541 10.8886 42.8538 11.1342 42.7985 11.3706L39.0141 27.5355C38.9316 27.8914 38.7285 28.2093 38.4379 28.4371C38.1474 28.6648 37.7868 28.7889 37.4151 28.7891ZM16.2849 25.5664H36.1091L39.1355 12.6242H13.2574L16.2849 25.5664Z" fill="#FCFCFC"/>
<path d="M18.189 43.1836C16.9456 43.1836 15.73 42.8215 14.6962 42.143C13.6623 41.4645 12.8565 40.5002 12.3807 39.3719C11.9048 38.2436 11.7803 37.0021 12.0229 35.8044C12.2655 34.6066 12.8642 33.5064 13.7435 32.6429C14.6227 31.7793 15.7429 31.1913 16.9625 30.953C18.182 30.7148 19.4461 30.8371 20.5949 31.3044C21.7436 31.7717 22.7255 32.5632 23.4163 33.5786C24.1071 34.594 24.4759 35.7878 24.4759 37.009C24.4741 38.6461 23.8112 40.2156 22.6325 41.3732C21.4539 42.5308 19.8558 43.1819 18.189 43.1836ZM18.189 34.0581C17.5945 34.0581 17.0133 34.2313 16.519 34.5557C16.0247 34.8801 15.6395 35.3412 15.412 35.8807C15.1846 36.4201 15.1251 37.0137 15.2412 37.5864C15.3572 38.159 15.6436 38.685 16.0641 39.0978C16.4845 39.5106 17.0202 39.7916 17.6033 39.9054C18.1864 40.0192 18.7908 39.9606 19.3399 39.737C19.8891 39.5134 20.3585 39.1349 20.6886 38.6493C21.0187 38.1637 21.1948 37.5929 21.1946 37.009C21.1937 36.2264 20.8768 35.4762 20.3132 34.923C19.7497 34.3697 18.9858 34.0587 18.189 34.0581Z" fill="#FCFCFC"/>
<path d="M34.2039 43.1836C32.9604 43.1836 31.7449 42.8215 30.7111 42.143C29.6772 41.4645 28.8714 40.5002 28.3956 39.3719C27.9197 38.2436 27.7952 37.0021 28.0378 35.8044C28.2804 34.6066 28.8791 33.5064 29.7584 32.6429C30.6376 31.7793 31.7578 31.1913 32.9774 30.953C34.1969 30.7148 35.461 30.8371 36.6098 31.3044C37.7585 31.7717 38.7404 32.5632 39.4312 33.5786C40.122 34.594 40.4907 35.7878 40.4907 37.009C40.489 38.6461 39.8261 40.2156 38.6474 41.3732C37.4688 42.5308 35.8707 43.1819 34.2039 43.1836ZM34.2039 34.0581C33.6094 34.0581 33.0282 34.2313 32.5339 34.5557C32.0396 34.8801 31.6544 35.3412 31.4269 35.8807C31.1995 36.4201 31.14 37.0137 31.2561 37.5864C31.3721 38.159 31.6585 38.685 32.079 39.0978C32.4994 39.5106 33.0351 39.7916 33.6182 39.9054C34.2013 40.0192 34.8056 39.9606 35.3548 39.737C35.904 39.5134 36.3734 39.1349 36.7035 38.6493C37.0336 38.1637 37.2097 37.5929 37.2095 37.009C37.2086 36.2264 36.8916 35.4762 36.3281 34.923C35.7646 34.3697 35.0006 34.0587 34.2039 34.0581Z" fill="#FCFCFC"/>
<path d="M11.1978 12.621C10.8534 12.621 10.5178 12.5145 10.2385 12.3167C9.95911 12.1189 9.75023 11.8397 9.64141 11.5188L6.82937 3.22266H1.64062C1.2055 3.22266 0.788205 3.05289 0.480528 2.75071C0.172851 2.44853 0 2.03868 0 1.61133C0 1.18398 0.172851 0.77413 0.480528 0.471947C0.788205 0.169764 1.2055 0 1.64062 0H8.01719C8.36157 3.12946e-05 8.69721 0.106495 8.97655 0.304307C9.25589 0.50212 9.46477 0.781249 9.57359 1.10215L12.7597 10.5005C12.8418 10.7427 12.8642 11.0006 12.825 11.2529C12.7857 11.5053 12.686 11.7448 12.534 11.9519C12.382 12.159 12.1821 12.3277 11.9507 12.444C11.7194 12.5603 11.4632 12.621 11.2033 12.621H11.1978Z" fill="#FCFCFC"/>
</svg>
